<svg width="24" height="25" viewBox="0 0 24 25" fill="none" xmlns="http://www.w3.org/2000/svg">
<path id="Rectangle 3 (Stroke)" fill-rule="evenodd" clip-rule="evenodd" d="M6.66667 0.5C2.98477 0.5 0 3.48477 0 7.16667V17.8333C0 21.5152 2.98477 24.5 6.66667 24.5H17.3333C21.0152 24.5 24 21.5152 24 17.8333V7.16667C24 3.48477 21.0152 0.5 17.3333 0.5H6.66667ZM18.2761 8.89052C18.7968 9.41122 18.7968 10.2554 18.2761 10.7761L11.6095 17.4428C11.0888 17.9635 10.2446 17.9635 9.72386 17.4428L5.72386 13.4428C5.20316 12.9221 5.20316 12.0779 5.72386 11.5572C6.24456 11.0365 7.08878 11.0365 7.60948 11.5572L10.6667 14.6144L16.3905 8.89052C16.9112 8.36983 17.7554 8.36983 18.2761 8.89052Z" fill="#23C198"/>
</svg>
