<svg width="56" height="57" viewBox="0 0 56 57" fill="none" xmlns="http://www.w3.org/2000/svg">
<path d="M0 28.9092C0 13.4452 12.536 0.90918 28 0.90918C43.464 0.90918 56 13.4452 56 28.9092C56 44.3732 43.464 56.9092 28 56.9092C12.536 56.9092 0 44.3732 0 28.9092Z" fill="url(#paint0_linear_11_513)"/>
<path fill-rule="evenodd" clip-rule="evenodd" d="M28 46.9092C37.9411 46.9092 46 38.8503 46 28.9092C46 18.9681 37.9411 10.9092 28 10.9092C18.0589 10.9092 10 18.9681 10 28.9092C10 38.8503 18.0589 46.9092 28 46.9092ZM36.341 26.0002C37.2197 25.1215 37.2197 23.6969 36.341 22.8182C35.4623 21.9395 34.0377 21.9395 33.159 22.8182L25.75 30.2272L22.841 27.3182C21.9623 26.4395 20.5377 26.4395 19.659 27.3182C18.7803 28.1969 18.7803 29.6215 19.659 30.5002L24.159 35.0002C25.0377 35.8789 26.4623 35.8789 27.341 35.0002L36.341 26.0002Z" fill="white"/>
<defs>
<linearGradient id="paint0_linear_11_513" x1="15.8234" y1="34.0191" x2="40.0675" y2="14.0219" gradientUnits="userSpaceOnUse">
<stop stop-color="#24BF97"/>
<stop offset="1" stop-color="#15D6A8"/>
</linearGradient>
</defs>
</svg>
