<svg width="34" height="30" viewBox="0 0 34 30" fill="none" xmlns="http://www.w3.org/2000/svg">
<path id="Vector" d="M29.7593 2.13693C28.2195 0.816777 26.2221 -0.00750726 24.1809 0.00272652C23.0078 -0.00285555 21.8355 0.275317 20.7833 0.791658C19.0398 1.63083 17.649 3.06821 16.6154 4.68235C16.0209 3.76224 15.3222 2.90447 14.5016 2.17694C13.2057 1.00843 11.5562 0.204611 9.80897 0.0399403C7.49985 -0.200088 5.15632 0.664201 3.42216 2.17694C1.83964 3.53803 0.708345 5.4164 0.252477 7.45292C-0.0629099 8.79447 -0.071283 10.1984 0.163164 11.5529C0.682295 14.3403 2.20434 16.8196 3.93664 19.018C5.14888 20.5419 6.4988 21.9523 7.92316 23.2799C10.6091 25.7779 13.5406 28.0042 16.6154 29.9998C19.6455 28.0377 22.5305 25.8458 25.1848 23.3971C26.9198 21.7839 28.56 20.0563 29.9621 18.1426C30.8636 16.9154 31.6627 15.6046 32.2609 14.2026C32.8071 12.9131 33.1727 11.5353 33.2211 10.1304C33.3764 7.12265 32.0665 4.07763 29.7593 2.13693ZM11.6129 15.6474C11.7897 14.7161 12.6028 13.9542 13.5434 13.8388C14.2365 13.7392 14.9677 13.9793 15.4627 14.4752C16.0153 15.012 16.2646 15.8428 16.086 16.5945C15.8888 17.4634 15.1463 18.1807 14.269 18.3407C13.562 18.4756 12.8037 18.2375 12.2855 17.7416C11.7218 17.2206 11.4501 16.4019 11.6129 15.6474ZM17.0991 26.9725C17.087 27.179 16.8433 27.1269 16.7103 27.085C14.0653 26.3994 11.6687 24.8913 9.77734 22.9338C8.72139 21.8407 7.80594 20.6173 6.99096 19.3371C5.37588 16.7768 4.29761 13.7941 4.36646 10.738C4.42693 8.52839 4.99444 6.28348 6.23459 4.43488C6.14806 4.78283 6.02061 5.11869 5.92292 5.46384C5.61033 6.48536 5.49589 7.56549 5.58242 8.6298C5.70057 10.1165 6.18993 11.5511 6.85978 12.8759C8.00689 15.0938 9.68802 17.0187 11.6576 18.5454C12.2846 19.0478 12.9498 19.5037 13.5508 20.0386C14.6151 20.9727 15.5343 22.0854 16.1828 23.3488C16.754 24.4643 17.1652 25.7063 17.0991 26.9725ZM19.0622 17.4606C17.9765 19.4171 17.2852 21.5867 17.0098 23.8065C16.8359 23.1683 16.5772 22.5505 16.2144 21.9951C15.8143 21.3709 15.2868 20.8443 14.7817 20.3065C14.6886 20.2172 14.6644 20.0693 14.7463 19.9651C16.4646 17.4169 18.8147 15.2641 21.5843 13.9179C20.6382 15.0166 19.7581 16.1833 19.0622 17.4606ZM28.1544 9.45595H25.8816V11.7297H23.1352V9.45595H20.8624V6.70864H23.1352V4.43581H25.8816V6.70957H28.1544V9.45595Z" fill="url(#paint0_linear_11_92)"/>
<defs>
<linearGradient id="paint0_linear_11_92" x1="0.0210399" y1="14.9542" x2="33.1785" y2="14.9542" gradientUnits="userSpaceOnUse">
<stop stop-color="#24BF97"/>
<stop offset="1" stop-color="#15D6A8"/>
</linearGradient>
</defs>
</svg>
